<?xml version="1.0" encoding="utf-8"?>
<!-- Generator: Adobe Illustrator 27.7.0, SVG Export Plug-In . SVG Version: 6.00 Build 0)  -->
<svg version="1.1" id="レイヤー_1" xmlns="http://www.w3.org/2000/svg" xmlns:xlink="http://www.w3.org/1999/xlink" x="0px"
	 y="0px" width="500px" height="136.5px" viewBox="0 0 500 136.5" style="enable-background:new 0 0 500 136.5;"
	 xml:space="preserve">
<style type="text/css">
	.st0{fill:#FFFFFF;}
</style>
<g>
	<g>
		<g>
			<path class="st0" d="M0,1.9h22.3v132.6H0V1.9z"/>
		</g>
		<g>
			<path class="st0" d="M77.3,99.4c3.5,13.7,9.8,18.9,22.5,18.9c13.9,0,20.6-6.5,20.6-20.2c0-6.3-1.9-11.3-5.2-14.1
				c-3.7-3.2-3.7-3.2-19.7-7.8c-23.6-6.9-32.7-17.6-32.7-38.4C62.8,13.7,76.7,0,101,0c21,0,32.1,8.7,36.8,29.3L119,34.7
				c-4-12.6-8.3-16.7-18.1-16.7c-10.8,0-16.7,6.7-16.7,18.6c0,11.5,5.6,16.7,22.5,21.7c15,4.5,18.2,5.8,24,10
				c7.6,5.9,11.1,15,11.1,29c0,25.8-14.3,39.2-41.8,39.2c-15.8,0-27.1-4.3-33.8-12.8c-3.7-4.3-5.8-9.5-8-18.8L77.3,99.4z"/>
		</g>
		<g>
			<path class="st0" d="M189.1,99.4c3.5,13.7,9.8,18.9,22.5,18.9c13.9,0,20.6-6.5,20.6-20.2c0-6.3-1.9-11.3-5.2-14.1
				c-3.7-3.2-3.7-3.2-19.7-7.8c-23.6-6.9-32.7-17.6-32.7-38.4c0-24,13.9-37.7,38.3-37.7c21,0,32.1,8.7,36.8,29.3l-18.8,5.4
				c-4.1-12.6-8.4-16.7-18.2-16.7c-10.8,0-16.7,6.7-16.7,18.6c0,11.5,5.6,16.7,22.5,21.7c15,4.5,18.2,5.8,24,10
				c7.6,5.9,11.1,15,11.1,29c0,25.8-14.3,39.2-41.8,39.2c-15.8,0-27.1-4.3-33.8-12.8c-3.7-4.3-5.8-9.5-8-18.8L189.1,99.4z"/>
		</g>
		<g>
			<path class="st0" d="M289.8,47.4c0-17.1,2.6-26.7,8.9-34.5c7.4-9,17.6-12.9,33.6-12.9c17.1,0,28,4.6,35.3,15
				c5.2,7.4,7.2,16.5,7.2,32.3V89c0,17.1-2.6,26.7-8.9,34.5c-7.4,8.9-17.6,12.8-33.6,12.8c-17.1,0-28-4.6-35.3-14.9
				c-5.2-7.6-7.2-16.9-7.2-32.5V47.4z M352.5,49.4c0-22.8-5.4-31.2-20.2-31.2c-14.9,0-20.2,8.4-20.2,31.2v37.5
				c0,22.8,5.4,31.2,20.2,31.2c14.9,0,20.2-8.4,20.2-31.2V49.4z"/>
		</g>
		<g>
			<path class="st0" d="M418.7,1.9H441v56.5h36.8V1.9H500v132.6h-22.3V76.7h-36.8v57.8h-22.3L418.7,1.9L418.7,1.9z"/>
		</g>
	</g>
</g>
</svg>
